<svg xmlns="http://www.w3.org/2000/svg" viewBox="190 208.89 194 157.06"> <svg xmlns="http://www.w3.org/2000/svg" id="Layer_1" dataName="Layer 1" viewBox="281.58367919921875 259 636.830322265625 682" height="122" width="114" y="208" x="230" preserveAspectRatio="xMinYMin" style="overflow: visible;"><path class="cls-1" d="M592.3,759a169.07,169.07,0,0,0,126.24-81.38l15,8.65a169.06,169.06,0,0,0-7.24-149.75l14.15-8.17a169.08,169.08,0,0,0-134-68.66V441a169,169,0,0,0-126.13,81.24l-13.79-8a169,169,0,0,0,7.36,150l-15.56,9a169,169,0,0,0,134,68.66Zm-104-102.61,15-8.67A135.35,135.35,0,0,1,496.06,532l13.2,7.62a135.34,135.34,0,0,1,97.15-64.28v18.18A135.37,135.37,0,0,1,710.18,545l-13.53,7.81a135.31,135.31,0,0,1,7.23,115.87l-14.42-8.33a135.36,135.36,0,0,1-97.16,64.28V708.07A135.36,135.36,0,0,1,488.34,656.4Zm369.11-196,36.17-20.88C823.92,347,714.6,301,606.16,308.1V264C491.38,278,397,349.48,348.87,446.7L313,426C267.79,532.49,282.5,650,342.7,740.33L305.15,762c69.69,92.54,179,138.58,287.46,131.45V936C707.45,922,801.88,850.45,850,753.16l37,21.36C932.17,668.12,917.52,550.7,857.45,460.43Zm-12.92,7-36.29,21a241.71,241.71,0,0,0-201.83-96v-27A276.43,276.43,0,0,1,844.53,467.43ZM432.67,688.54l25-14.41a193.45,193.45,0,0,1-17.24-174.24l23.14,13.36A193.5,193.5,0,0,1,606.41,411.09v29.66a193.47,193.47,0,0,1,159.44,72.11l-23.47,13.55a193.46,193.46,0,0,1,17.17,174.41l-24.37-14.07A193.48,193.48,0,0,1,592.3,788.91v-28A193.51,193.51,0,0,1,432.67,688.54Zm173.74-368.3v41.93C525.26,371.94,458.05,421.08,422,488.56L398.6,475.07A276.42,276.42,0,0,1,606.41,320.24ZM361.71,454.46l36.29,21c-31.86,75.07-22.83,157.66,17.55,222.52l-23.36,13.48A276.41,276.41,0,0,1,361.71,454.46ZM354,734l36.3-21a241.7,241.7,0,0,0,202,96.2v26.95A276.44,276.44,0,0,1,354,734ZM592.3,879.76V837.83c81.22-9.77,148.47-59,184.54-126.54l23.36,13.48A276.43,276.43,0,0,1,592.3,879.76ZM838.23,746.25l-36.3-21c31.91-75,23-157.57-17.33-222.43L808,489.36A276.39,276.39,0,0,1,838.23,746.25Z" style="fill: #F74040; fill-opacity: 1;"/></svg> <svg y="339" x="190" viewBox="2.990000009536743 8.140000343322754 194.58999633789062 27" height="27" width="194" overflow="visible" style="overflow: visible;"><g fill="#3a3a3a" fill-opacity="1" style=""><path d="M20.23 34.85L12.17 24.95L8.78 28.48L8.78 34.85L2.99 34.85L2.99 9.65L8.78 9.65L8.78 21.42L19.94 9.65L26.42 9.65L15.98 20.88L27.04 34.85L20.23 34.85ZM37.61 15.19Q42.11 15.19 44.52 17.33Q46.94 19.48 46.94 23.80L46.94 23.80L46.94 34.85L41.68 34.85L41.68 32.44Q40.10 35.14 35.78 35.14L35.78 35.14Q33.54 35.14 31.91 34.38Q30.27 33.62 29.40 32.29Q28.54 30.96 28.54 29.27L28.54 29.27Q28.54 26.57 30.57 25.02Q32.61 23.47 36.86 23.47L36.86 23.47L41.32 23.47Q41.32 21.64 40.20 20.65Q39.09 19.66 36.86 19.66L36.86 19.66Q35.31 19.66 33.81 20.14Q32.32 20.63 31.28 21.46L31.28 21.46L29.26 17.53Q30.84 16.42 33.06 15.80Q35.27 15.19 37.61 15.19L37.61 15.19ZM37.18 31.36Q38.62 31.36 39.74 30.69Q40.85 30.02 41.32 28.73L41.32 28.73L41.32 26.75L37.47 26.75Q34.01 26.75 34.01 29.02L34.01 29.02Q34.01 30.10 34.86 30.73Q35.70 31.36 37.18 31.36L37.18 31.36ZM58.38 18.04Q59.38 16.63 61.09 15.91Q62.80 15.19 65.04 15.19L65.04 15.19L65.04 20.38Q64.10 20.30 63.78 20.30L63.78 20.30Q61.36 20.30 60.00 21.65Q58.63 23.00 58.63 25.70L58.63 25.70L58.63 34.85L53.01 34.85L53.01 15.48L58.38 15.48L58.38 18.04ZM94.19 15.19Q97.82 15.19 99.97 17.33Q102.11 19.48 102.11 23.76L102.11 23.76L102.11 34.85L96.49 34.85L96.49 24.62Q96.49 22.32 95.54 21.19Q94.58 20.05 92.82 20.05L92.82 20.05Q90.84 20.05 89.69 21.33Q88.54 22.61 88.54 25.13L88.54 25.13L88.54 34.85L82.92 34.85L82.92 24.62Q82.92 20.05 79.25 20.05L79.25 20.05Q77.30 20.05 76.15 21.33Q75 22.61 75 25.13L75 25.13L75 34.85L69.38 34.85L69.38 15.48L74.75 15.48L74.75 17.71Q75.83 16.49 77.39 15.84Q78.96 15.19 80.83 15.19L80.83 15.19Q82.88 15.19 84.54 16.00Q86.20 16.81 87.20 18.36L87.20 18.36Q88.39 16.85 90.21 16.02Q92.03 15.19 94.19 15.19L94.19 15.19ZM115.96 15.19Q120.46 15.19 122.87 17.33Q125.28 19.48 125.28 23.80L125.28 23.80L125.28 34.85L120.03 34.85L120.03 32.44Q118.44 35.14 114.12 35.14L114.12 35.14Q111.89 35.14 110.25 34.38Q108.62 33.62 107.75 32.29Q106.89 30.96 106.89 29.27L106.89 29.27Q106.89 26.57 108.92 25.02Q110.96 23.47 115.20 23.47L115.20 23.47L119.67 23.47Q119.67 21.64 118.55 20.65Q117.44 19.66 115.20 19.66L115.20 19.66Q113.66 19.66 112.16 20.14Q110.67 20.63 109.62 21.46L109.62 21.46L107.61 17.53Q109.19 16.42 111.41 15.80Q113.62 15.19 115.96 15.19L115.96 15.19ZM115.53 31.36Q116.97 31.36 118.08 30.69Q119.20 30.02 119.67 28.73L119.67 28.73L119.67 26.75L115.82 26.75Q112.36 26.75 112.36 29.02L112.36 29.02Q112.36 30.10 113.21 30.73Q114.05 31.36 115.53 31.36L115.53 31.36ZM136.98 34.85L136.98 14.40L128.91 14.40L128.91 9.65L150.87 9.65L150.87 14.40L142.81 14.40L142.81 34.85L136.98 34.85ZM171.60 25.24Q171.60 25.34 171.49 26.75L171.49 26.75L156.84 26.75Q157.24 28.55 158.71 29.59Q160.19 30.64 162.38 30.64L162.38 30.64Q163.90 30.64 165.07 30.19Q166.24 29.74 167.24 28.76L167.24 28.76L170.23 32.00Q167.50 35.14 162.24 35.14L162.24 35.14Q158.96 35.14 156.44 33.86Q153.92 32.58 152.56 30.31Q151.19 28.04 151.19 25.16L151.19 25.16Q151.19 22.32 152.54 20.03Q153.89 17.75 156.25 16.47Q158.60 15.19 161.52 15.19L161.52 15.19Q164.36 15.19 166.67 16.42Q168.97 17.64 170.29 19.93Q171.60 22.21 171.60 25.24L171.60 25.24ZM161.56 19.44Q159.65 19.44 158.35 20.52Q157.06 21.60 156.77 23.47L156.77 23.47L166.31 23.47Q166.02 21.64 164.72 20.54Q163.43 19.44 161.56 19.44L161.56 19.44ZM190.78 34.85L184.66 27.25L181.96 29.92L181.96 34.85L176.34 34.85L176.34 8.14L181.96 8.14L181.96 23.26L190.17 15.48L196.86 15.48L188.80 23.69L197.58 34.85L190.78 34.85Z" transform="translate(0, 0)"/></g></svg></svg>